Coordinates
version=1
nRows=23
nColumns=38
inDegrees=no

Units are S.I. units (second, meters, Newtons, ...)
If the header above contains a line with 'inDegrees', this indicates whether rotational values are in degrees (yes) or radians (no).

endheader
time	pelvis_tilt	pelvis_list	pelvis_rotation	pelvis_tx	pelvis_ty	pelvis_tz	hip_flexion_r	hip_adduction_r	hip_rotation_r	knee_angle_r	ankle_angle_r	subtalar_angle_r	mtp_angle_r	hip_flexion_l	hip_adduction_l	hip_rotation_l	knee_angle_l	ankle_angle_l	subtalar_angle_l	mtp_angle_l	lumbar_extension	lumbar_bending	lumbar_rotation	arm_flex_r	arm_add_r	arm_rot_r	elbow_flex_r	pro_sup_r	wrist_flex_r	wrist_dev_r	arm_flex_l	arm_add_l	arm_rot_l	elbow_flex_l	pro_sup_l	wrist_flex_l	wrist_dev_l
1.74	-0.458224	1.30816	-1.03864	0.992026	-0.338574	0.934243	0.117473	0.0412921	-0.222939	0.466457	-0.293182	0	0	-0.459843	-0.279321	-0.385481	0.649279	-0.308828	0	0	-0.332496	0.202826	-0.16482	-0.0347929	-0.0815941	-0.626752	0.576711	0.658011	0	0	-0.00514467	-0.232319	-0.0289502	0.852193	1.50209	0	0
1.75	-0.484587	1.3025	-1.01906	0.98904	-0.350337	0.935353	0.105927	0.0546031	-0.223416	0.471525	-0.288525	0	0	-0.441444	-0.297833	-0.385248	0.70936	-0.338182	0	0	-0.332285	0.210587	-0.158342	-0.0397529	-0.0807846	-0.629645	0.581719	0.660712	0	0	-0.0147555	-0.228977	-0.02561	0.840984	1.5036	0	0
1.76	-0.50989	1.29767	-0.999782	0.986105	-0.361955	0.936232	0.0931908	0.0672663	-0.226691	0.473954	-0.282239	0	0	-0.419337	-0.315928	-0.381529	0.771021	-0.367857	0	0	-0.331217	0.217973	-0.152441	-0.0454908	-0.0794831	-0.632258	0.588621	0.663117	0	0	-0.0245871	-0.226235	-0.0212448	0.830755	1.50457	0	0
1.77	-0.531764	1.29365	-0.983083	0.983197	-0.37335	0.936939	0.0790197	0.0793543	-0.22906	0.473555	-0.273579	0	0	-0.394388	-0.332834	-0.374737	0.833561	-0.390042	0	0	-0.32971	0.224232	-0.147048	-0.0514489	-0.0778147	-0.634247	0.596172	0.664617	0	0	-0.0339132	-0.224416	-0.0149926	0.820877	1.50322	0	0
1.78	-0.548406	1.29	-0.971447	0.980304	-0.384413	0.937595	0.0638455	0.0904823	-0.228456	0.471212	-0.264857	0	0	-0.368266	-0.347408	-0.365107	0.896254	-0.399925	0	0	-0.329034	0.228805	-0.141544	-0.0565106	-0.0761648	-0.635333	0.60294	0.665237	0	0	-0.0425892	-0.223512	-0.00732967	0.811685	1.50187	0	0
1.79	-0.56127	1.28712	-0.962942	0.977511	-0.395171	0.938294	0.0488054	0.100626	-0.225782	0.468045	-0.255458	0	0	-0.340472	-0.360099	-0.353879	0.958906	-0.402442	0	0	-0.328852	0.231983	-0.135908	-0.0610109	-0.0745396	-0.636141	0.60894	0.66509	0	0	-0.0498216	-0.223396	0.00262202	0.802002	1.50094	0	0
1.8	-0.567449	1.28451	-0.959803	0.97496	-0.405598	0.93921	0.0326938	0.109231	-0.221876	0.463533	-0.246424	0	0	-0.311916	-0.370053	-0.341036	1.01969	-0.401593	0	0	-0.330123	0.233337	-0.131295	-0.0639935	-0.0732048	-0.636234	0.612842	0.664605	0	0	-0.0559936	-0.223597	0.0126002	0.792805	1.49909	0	0
1.81	-0.552698	1.2833	-0.974347	0.972627	-0.415177	0.94097	0.01425	0.111946	-0.217426	0.456717	-0.239502	0	0	-0.282882	-0.354756	-0.287399	1.06828	-0.390413	0	0	-0.335605	0.228535	-0.129282	-0.0610282	-0.0717499	-0.636379	0.607827	0.662997	0	0	-0.0583999	-0.225266	0.0239169	0.780899	1.50225	0	0
1.82	-0.542365	1.28106	-0.984362	0.970563	-0.424964	0.942506	-0.00534333	0.115973	-0.213679	0.44795	-0.233882	0	0	-0.253668	-0.355908	-0.26899	1.12134	-0.381004	0	0	-0.340172	0.225599	-0.128596	-0.0588277	-0.0707424	-0.636996	0.604129	0.661933	0	0	-0.0632809	-0.226186	0.0327917	0.771794	1.50398	0	0
1.83	-0.539786	1.2773	-0.987743	0.96856	-0.435155	0.943742	-0.0270042	0.123008	-0.207818	0.435105	-0.229492	0	0	-0.226065	-0.377003	-0.289167	1.17556	-0.367465	0	0	-0.343773	0.225379	-0.126891	-0.0599388	-0.0698335	-0.638424	0.604868	0.661497	0	0	-0.070655	-0.226549	0.0405058	0.766057	1.50295	0	0
1.84	-0.503984	1.27913	-1.01792	0.966725	-0.443786	0.946285	-0.0481122	0.11858	-0.201183	0.420246	-0.228682	0	0	-0.196253	-0.334881	-0.206983	1.20547	-0.312358	0	0	-0.350917	0.21358	-0.131061	-0.0498364	-0.068255	-0.640916	0.587548	0.660987	0	0	-0.0699452	-0.22965	0.0502861	0.753477	1.50311	0	0
1.85	-0.487564	1.27806	-1.03294	0.964813	-0.453252	0.948037	-0.0702437	0.120586	-0.19246	0.404547	-0.227171	0	0	-0.168534	-0.329675	-0.192008	1.24296	-0.268334	0	0	-0.355128	0.207789	-0.132499	-0.0459521	-0.0667914	-0.643981	0.579771	0.663952	0	0	-0.075522	-0.231244	0.0566325	0.747244	1.50283	0	0
1.86	-0.47256	1.27777	-1.04808	0.962789	-0.462806	0.949718	-0.0919038	0.122281	-0.183493	0.388609	-0.225604	0	0	-0.140579	-0.324393	-0.18144	1.27565	-0.236208	0	0	-0.358491	0.201629	-0.131988	-0.0437758	-0.0651071	-0.647712	0.573824	0.666174	0	0	-0.0813247	-0.23246	0.0624988	0.741606	1.50305	0	0
1.87	-0.45792	1.27804	-1.06462	0.96067	-0.472428	0.951338	-0.113362	0.12329	-0.175244	0.372401	-0.224165	0	0	-0.113067	-0.318107	-0.173402	1.30224	-0.213952	0	0	-0.361213	0.194864	-0.12995	-0.0422137	-0.0634877	-0.65138	0.568143	0.667624	0	0	-0.0876787	-0.233602	0.0682048	0.736564	1.50377	0	0
1.88	-0.441229	1.27793	-1.08359	0.958618	-0.481893	0.952901	-0.135565	0.123387	-0.168441	0.355769	-0.223219	0	0	-0.087165	-0.310042	-0.164734	1.32251	-0.195375	0	0	-0.364652	0.187872	-0.127747	-0.040715	-0.0615931	-0.655146	0.563313	0.669248	0	0	-0.094102	-0.23531	0.0744267	0.732945	1.50381	0	0
1.89	-0.423357	1.27743	-1.10519	0.956571	-0.491249	0.954365	-0.15802	0.122536	-0.161526	0.339682	-0.222561	0	0	-0.0636757	-0.300947	-0.157442	1.33599	-0.180578	0	0	-0.368945	0.180532	-0.124302	-0.0397347	-0.0594231	-0.658884	0.560507	0.671028	0	0	-0.10087	-0.237388	0.0810741	0.731096	1.50371	0	0
1.9	-0.406319	1.27743	-1.12776	0.954481	-0.500651	0.955673	-0.179516	0.120679	-0.155923	0.324307	-0.222325	0	0	-0.0415883	-0.291764	-0.153493	1.34252	-0.171435	0	0	-0.372684	0.172797	-0.119091	-0.03939	-0.0572352	-0.663038	0.558897	0.672017	0	0	-0.107647	-0.239458	0.0882219	0.729725	1.50266	0	0
1.91	-0.389507	1.27798	-1.15123	0.95239	-0.510022	0.956827	-0.199337	0.117675	-0.153325	0.310826	-0.222339	0	0	-0.0204106	-0.282466	-0.152312	1.34285	-0.167031	0	0	-0.375848	0.164662	-0.112842	-0.0392367	-0.0553596	-0.666393	0.557417	0.672325	0	0	-0.114112	-0.241365	0.0956004	0.727976	1.50243	0	0
1.92	-0.372426	1.27859	-1.17584	0.950318	-0.519317	0.957866	-0.217924	0.11367	-0.152812	0.299058	-0.222609	0	0	-0.000556355	-0.273322	-0.153978	1.33753	-0.161526	0	0	-0.378995	0.156255	-0.106052	-0.0387545	-0.0537435	-0.669537	0.555939	0.672081	0	0	-0.12028	-0.243018	0.102144	0.726981	1.50005	0	0
1.93	-0.355842	1.27893	-1.20035	0.948269	-0.528554	0.958761	-0.236089	0.109349	-0.152539	0.288054	-0.222853	0	0	0.0179247	-0.264945	-0.158226	1.32709	-0.154281	0	0	-0.382444	0.148029	-0.0987225	-0.038324	-0.0524708	-0.672269	0.554844	0.671929	0	0	-0.126189	-0.244528	0.107974	0.727864	1.49169	0	0
1.94	-0.339461	1.27786	-1.22529	0.946265	-0.537699	0.959545	-0.25503	0.105038	-0.150687	0.278256	-0.222317	0	0	0.0331529	-0.257551	-0.16533	1.31128	-0.148955	0	0	-0.38751	0.140233	-0.090449	-0.0385403	-0.0515886	-0.673534	0.555697	0.672232	0	0	-0.13174	-0.246642	0.115155	0.729585	1.48235	0	0
1.95	-0.323565	1.27446	-1.25093	0.944307	-0.54669	0.960254	-0.275891	0.100935	-0.146366	0.26889	-0.221474	0	0	0.0440638	-0.251178	-0.17512	1.29015	-0.144253	0	0	-0.395432	0.133019	-0.0804215	-0.0393904	-0.0511528	-0.673474	0.559185	0.672503	0	0	-0.136843	-0.249444	0.123594	0.732429	1.4745	0	0
1.96	-0.309882	1.27012	-1.2735	0.942502	-0.55576	0.960802	-0.297688	0.0975703	-0.142645	0.259061	-0.220829	0	0	0.052965	-0.245916	-0.185717	1.26467	-0.139192	0	0	-0.403811	0.126882	-0.0710088	-0.0399171	-0.0508682	-0.673393	0.562645	0.67166	0	0	-0.142154	-0.252449	0.131789	0.735812	1.46825	0	0
